<svg xmlns="http://www.w3.org/2000/svg" xmlns:xlink="http://www.w3.org/1999/xlink" width="5000" zoomAndPan="magnify" viewBox="0 0 3750 3749.999967" height="5000" preserveAspectRatio="xMidYMid meet" version="1.0"><defs><clipPath id="id1"><path d="M 1037.785156 1272.546875 L 2675.035156 1272.546875 L 2675.035156 2477.796875 L 1037.785156 2477.796875 Z M 1037.785156 1272.546875 " clip-rule="nonzero"/></clipPath><clipPath id="id2"><path d="M 2121 2179 L 2477.796875 2179 L 2477.796875 2477.796875 L 2121 2477.796875 Z M 2121 2179 " clip-rule="nonzero"/></clipPath><clipPath id="id3"><path d="M 1649 2179 L 2102 2179 L 2102 2477.796875 L 1649 2477.796875 Z M 1649 2179 " clip-rule="nonzero"/></clipPath><clipPath id="id4"><path d="M 1272.546875 2179 L 1630 2179 L 1630 2477.796875 L 1272.546875 2477.796875 Z M 1272.546875 2179 " clip-rule="nonzero"/></clipPath><clipPath id="id5"><path d="M 1649 1272.546875 L 2102 1272.546875 L 2102 2172 L 1649 2172 Z M 1649 1272.546875 " clip-rule="nonzero"/></clipPath><clipPath id="id6"><path d="M 1272.546875 1856 L 1348 1856 L 1348 2208 L 1272.546875 2208 Z M 1272.546875 1856 " clip-rule="nonzero"/></clipPath><clipPath id="id7"><path d="M 2477.453125 2126.257812 L 2828.453125 2126.257812 L 2828.453125 2477.257812 L 2477.453125 2477.257812 Z M 2477.453125 2126.257812 " clip-rule="nonzero"/></clipPath></defs><rect x="-375" width="4500" fill="#ffffff" y="-374.999997" height="4499.99996" fill-opacity="1"/><rect x="-375" width="4500" fill="#ffffff" y="-374.999997" height="4499.99996" fill-opacity="1"/><rect x="-375" width="4500" fill="#ffffff" y="-374.999997" height="4499.99996" fill-opacity="1"/><rect x="-375" width="4500" fill="#ffffff" y="-374.999997" height="4499.99996" fill-opacity="1"/><g clip-path="url(#id1)"><path fill="#ffffff" d="M 1037.785156 1272.546875 L 2675.035156 1272.546875 L 2675.035156 2477.796875 L 1037.785156 2477.796875 Z M 1037.785156 1272.546875 " fill-opacity="1" fill-rule="nonzero"/></g><path fill="#000000" d="M 1592.464844 1705.683594 C 1592.464844 1695.289062 1584.027344 1686.851562 1573.632812 1686.851562 C 1563.238281 1686.851562 1554.800781 1695.289062 1554.800781 1705.683594 L 1554.800781 1743.347656 C 1554.800781 1753.742188 1563.238281 1762.179688 1573.632812 1762.179688 C 1584.027344 1762.179688 1592.464844 1753.742188 1592.464844 1743.347656 Z M 1592.464844 1705.683594 " fill-opacity="1" fill-rule="nonzero"/><path fill="#000000" d="M 1517.136719 1705.683594 C 1517.136719 1695.289062 1508.699219 1686.851562 1498.304688 1686.851562 C 1487.910156 1686.851562 1479.472656 1695.289062 1479.472656 1705.683594 L 1479.472656 1743.347656 C 1479.472656 1753.742188 1487.910156 1762.179688 1498.304688 1762.179688 C 1508.699219 1762.179688 1517.136719 1753.742188 1517.136719 1743.347656 Z M 1517.136719 1705.683594 " fill-opacity="1" fill-rule="nonzero"/><path fill="#000000" d="M 1592.464844 1818.675781 C 1592.464844 1808.28125 1584.027344 1799.84375 1573.632812 1799.84375 C 1563.238281 1799.84375 1554.800781 1808.28125 1554.800781 1818.675781 L 1554.800781 1856.339844 C 1554.800781 1866.734375 1563.238281 1875.171875 1573.632812 1875.171875 C 1584.027344 1875.171875 1592.464844 1866.734375 1592.464844 1856.339844 Z M 1592.464844 1818.675781 " fill-opacity="1" fill-rule="nonzero"/><path fill="#000000" d="M 1517.136719 1818.675781 C 1517.136719 1808.28125 1508.699219 1799.84375 1498.304688 1799.84375 C 1487.910156 1799.84375 1479.472656 1808.28125 1479.472656 1818.675781 L 1479.472656 1856.339844 C 1479.472656 1866.734375 1487.910156 1875.171875 1498.304688 1875.171875 C 1508.699219 1875.171875 1517.136719 1866.734375 1517.136719 1856.339844 Z M 1517.136719 1818.675781 " fill-opacity="1" fill-rule="nonzero"/><path fill="#000000" d="M 2270.839844 1705.683594 C 2270.839844 1695.289062 2262.40625 1686.851562 2252.007812 1686.851562 C 2241.613281 1686.851562 2233.175781 1695.289062 2233.175781 1705.683594 L 2233.175781 1743.347656 C 2233.175781 1753.742188 2241.613281 1762.179688 2252.007812 1762.179688 C 2262.40625 1762.179688 2270.839844 1753.742188 2270.839844 1743.347656 Z M 2270.839844 1705.683594 " fill-opacity="1" fill-rule="nonzero"/><path fill="#000000" d="M 2195.511719 1705.683594 C 2195.511719 1695.289062 2187.078125 1686.851562 2176.679688 1686.851562 C 2166.285156 1686.851562 2157.847656 1695.289062 2157.847656 1705.683594 L 2157.847656 1743.347656 C 2157.847656 1753.742188 2166.285156 1762.179688 2176.679688 1762.179688 C 2187.078125 1762.179688 2195.511719 1753.742188 2195.511719 1743.347656 Z M 2195.511719 1705.683594 " fill-opacity="1" fill-rule="nonzero"/><path fill="#000000" d="M 2270.839844 1818.675781 C 2270.839844 1808.28125 2262.40625 1799.84375 2252.007812 1799.84375 C 2241.613281 1799.84375 2233.175781 1808.28125 2233.175781 1818.675781 L 2233.175781 1856.339844 C 2233.175781 1866.734375 2241.613281 1875.171875 2252.007812 1875.171875 C 2262.40625 1875.171875 2270.839844 1866.734375 2270.839844 1856.339844 Z M 2270.839844 1818.675781 " fill-opacity="1" fill-rule="nonzero"/><path fill="#000000" d="M 2195.511719 1818.675781 C 2195.511719 1808.28125 2187.078125 1799.84375 2176.679688 1799.84375 C 2166.285156 1799.84375 2157.847656 1808.28125 2157.847656 1818.675781 L 2157.847656 1856.339844 C 2157.847656 1866.734375 2166.285156 1875.171875 2176.679688 1875.171875 C 2187.078125 1875.171875 2195.511719 1866.734375 2195.511719 1856.339844 Z M 2195.511719 1818.675781 " fill-opacity="1" fill-rule="nonzero"/><path fill="#000000" d="M 1743.121094 1517.363281 C 1743.121094 1527.757812 1751.558594 1536.195312 1761.953125 1536.195312 C 1772.347656 1536.195312 1780.785156 1527.757812 1780.785156 1517.363281 L 1780.785156 1479.699219 C 1780.785156 1469.304688 1772.347656 1460.867188 1761.953125 1460.867188 C 1751.558594 1460.867188 1743.121094 1469.304688 1743.121094 1479.699219 Z M 1743.121094 1517.363281 " fill-opacity="1" fill-rule="nonzero"/><path fill="#000000" d="M 1818.449219 1517.363281 C 1818.449219 1527.757812 1826.886719 1536.195312 1837.28125 1536.195312 C 1847.675781 1536.195312 1856.113281 1527.757812 1856.113281 1517.363281 L 1856.113281 1479.699219 C 1856.113281 1469.304688 1847.675781 1460.867188 1837.28125 1460.867188 C 1826.886719 1460.867188 1818.449219 1469.304688 1818.449219 1479.699219 Z M 1818.449219 1517.363281 " fill-opacity="1" fill-rule="nonzero"/><path fill="#000000" d="M 1893.777344 1517.363281 C 1893.777344 1527.757812 1902.214844 1536.195312 1912.609375 1536.195312 C 1923.003906 1536.195312 1931.441406 1527.757812 1931.441406 1517.363281 L 1931.441406 1479.699219 C 1931.441406 1469.304688 1923.003906 1460.867188 1912.609375 1460.867188 C 1902.214844 1460.867188 1893.777344 1469.304688 1893.777344 1479.699219 Z M 1893.777344 1517.363281 " fill-opacity="1" fill-rule="nonzero"/><path fill="#000000" d="M 2006.769531 1479.699219 C 2006.769531 1469.304688 1998.332031 1460.867188 1987.9375 1460.867188 C 1977.542969 1460.867188 1969.105469 1469.304688 1969.105469 1479.699219 L 1969.105469 1517.363281 C 1969.105469 1527.757812 1977.542969 1536.195312 1987.9375 1536.195312 C 1998.332031 1536.195312 2006.769531 1527.757812 2006.769531 1517.363281 Z M 2006.769531 1479.699219 " fill-opacity="1" fill-rule="nonzero"/><path fill="#000000" d="M 1743.121094 1630.355469 C 1743.121094 1640.75 1751.558594 1649.1875 1761.953125 1649.1875 C 1772.347656 1649.1875 1780.785156 1640.75 1780.785156 1630.355469 L 1780.785156 1592.691406 C 1780.785156 1582.296875 1772.347656 1573.859375 1761.953125 1573.859375 C 1751.558594 1573.859375 1743.121094 1582.296875 1743.121094 1592.691406 Z M 1743.121094 1630.355469 " fill-opacity="1" fill-rule="nonzero"/><path fill="#000000" d="M 1818.449219 1630.355469 C 1818.449219 1640.75 1826.886719 1649.1875 1837.28125 1649.1875 C 1847.675781 1649.1875 1856.113281 1640.75 1856.113281 1630.355469 L 1856.113281 1592.691406 C 1856.113281 1582.296875 1847.675781 1573.859375 1837.28125 1573.859375 C 1826.886719 1573.859375 1818.449219 1582.296875 1818.449219 1592.691406 Z M 1818.449219 1630.355469 " fill-opacity="1" fill-rule="nonzero"/><path fill="#000000" d="M 1893.777344 1630.355469 C 1893.777344 1640.75 1902.214844 1649.1875 1912.609375 1649.1875 C 1923.003906 1649.1875 1931.441406 1640.75 1931.441406 1630.355469 L 1931.441406 1592.691406 C 1931.441406 1582.296875 1923.003906 1573.859375 1912.609375 1573.859375 C 1902.214844 1573.859375 1893.777344 1582.296875 1893.777344 1592.691406 Z M 1893.777344 1630.355469 " fill-opacity="1" fill-rule="nonzero"/><path fill="#000000" d="M 2006.769531 1592.691406 C 2006.769531 1582.296875 1998.332031 1573.859375 1987.9375 1573.859375 C 1977.542969 1573.859375 1969.105469 1582.296875 1969.105469 1592.691406 L 1969.105469 1630.355469 C 1969.105469 1640.75 1977.542969 1649.1875 1987.9375 1649.1875 C 1998.332031 1649.1875 2006.769531 1640.75 2006.769531 1630.355469 Z M 2006.769531 1592.691406 " fill-opacity="1" fill-rule="nonzero"/><path fill="#000000" d="M 1743.121094 1743.347656 C 1743.121094 1753.742188 1751.558594 1762.179688 1761.953125 1762.179688 C 1772.347656 1762.179688 1780.785156 1753.742188 1780.785156 1743.347656 L 1780.785156 1705.683594 C 1780.785156 1695.289062 1772.347656 1686.851562 1761.953125 1686.851562 C 1751.558594 1686.851562 1743.121094 1695.289062 1743.121094 1705.683594 Z M 1743.121094 1743.347656 " fill-opacity="1" fill-rule="nonzero"/><path fill="#000000" d="M 1818.449219 1743.347656 C 1818.449219 1753.742188 1826.886719 1762.179688 1837.28125 1762.179688 C 1847.675781 1762.179688 1856.113281 1753.742188 1856.113281 1743.347656 L 1856.113281 1705.683594 C 1856.113281 1695.289062 1847.675781 1686.851562 1837.28125 1686.851562 C 1826.886719 1686.851562 1818.449219 1695.289062 1818.449219 1705.683594 Z M 1818.449219 1743.347656 " fill-opacity="1" fill-rule="nonzero"/><path fill="#000000" d="M 1893.777344 1743.347656 C 1893.777344 1753.742188 1902.214844 1762.179688 1912.609375 1762.179688 C 1923.003906 1762.179688 1931.441406 1753.742188 1931.441406 1743.347656 L 1931.441406 1705.683594 C 1931.441406 1695.289062 1923.003906 1686.851562 1912.609375 1686.851562 C 1902.214844 1686.851562 1893.777344 1695.289062 1893.777344 1705.683594 Z M 1893.777344 1743.347656 " fill-opacity="1" fill-rule="nonzero"/><path fill="#000000" d="M 2006.769531 1705.683594 C 2006.769531 1695.289062 1998.332031 1686.851562 1987.9375 1686.851562 C 1977.542969 1686.851562 1969.105469 1695.289062 1969.105469 1705.683594 L 1969.105469 1743.347656 C 1969.105469 1753.742188 1977.542969 1762.179688 1987.9375 1762.179688 C 1998.332031 1762.179688 2006.769531 1753.742188 2006.769531 1743.347656 Z M 2006.769531 1705.683594 " fill-opacity="1" fill-rule="nonzero"/><path fill="#000000" d="M 1743.121094 1856.339844 C 1743.121094 1866.734375 1751.558594 1875.171875 1761.953125 1875.171875 C 1772.347656 1875.171875 1780.785156 1866.734375 1780.785156 1856.339844 L 1780.785156 1818.675781 C 1780.785156 1808.28125 1772.347656 1799.84375 1761.953125 1799.84375 C 1751.558594 1799.84375 1743.121094 1808.28125 1743.121094 1818.675781 Z M 1743.121094 1856.339844 " fill-opacity="1" fill-rule="nonzero"/><path fill="#000000" d="M 1818.449219 1856.339844 C 1818.449219 1866.734375 1826.886719 1875.171875 1837.28125 1875.171875 C 1847.675781 1875.171875 1856.113281 1866.734375 1856.113281 1856.339844 L 1856.113281 1818.675781 C 1856.113281 1808.28125 1847.675781 1799.84375 1837.28125 1799.84375 C 1826.886719 1799.84375 1818.449219 1808.28125 1818.449219 1818.675781 Z M 1818.449219 1856.339844 " fill-opacity="1" fill-rule="nonzero"/><path fill="#000000" d="M 1893.777344 1856.339844 C 1893.777344 1866.734375 1902.214844 1875.171875 1912.609375 1875.171875 C 1923.003906 1875.171875 1931.441406 1866.734375 1931.441406 1856.339844 L 1931.441406 1818.675781 C 1931.441406 1808.28125 1923.003906 1799.84375 1912.609375 1799.84375 C 1902.214844 1799.84375 1893.777344 1808.28125 1893.777344 1818.675781 Z M 1893.777344 1856.339844 " fill-opacity="1" fill-rule="nonzero"/><path fill="#000000" d="M 2006.769531 1818.675781 C 2006.769531 1808.28125 1998.332031 1799.84375 1987.9375 1799.84375 C 1977.542969 1799.84375 1969.105469 1808.28125 1969.105469 1818.675781 L 1969.105469 1856.339844 C 1969.105469 1866.734375 1977.542969 1875.171875 1987.9375 1875.171875 C 1998.332031 1875.171875 2006.769531 1866.734375 2006.769531 1856.339844 Z M 2006.769531 1818.675781 " fill-opacity="1" fill-rule="nonzero"/><path fill="#000000" d="M 1762.167969 1423.203125 C 1772.566406 1423.203125 1781 1414.765625 1781 1404.371094 L 1781 1366.707031 C 1781 1356.3125 1772.566406 1347.875 1762.167969 1347.875 C 1751.773438 1347.875 1743.335938 1356.3125 1743.335938 1366.707031 L 1743.335938 1404.371094 C 1743.335938 1414.765625 1751.765625 1423.203125 1762.167969 1423.203125 Z M 1762.167969 1423.203125 " fill-opacity="1" fill-rule="nonzero"/><path fill="#000000" d="M 1837.496094 1423.203125 C 1847.894531 1423.203125 1856.328125 1414.765625 1856.328125 1404.371094 L 1856.328125 1366.707031 C 1856.328125 1356.3125 1847.894531 1347.875 1837.496094 1347.875 C 1827.101562 1347.875 1818.664062 1356.3125 1818.664062 1366.707031 L 1818.664062 1404.371094 C 1818.664062 1414.765625 1827.09375 1423.203125 1837.496094 1423.203125 Z M 1837.496094 1423.203125 " fill-opacity="1" fill-rule="nonzero"/><path fill="#000000" d="M 1912.824219 1423.203125 C 1923.222656 1423.203125 1931.65625 1414.765625 1931.65625 1404.371094 L 1931.65625 1366.707031 C 1931.65625 1356.3125 1923.222656 1347.875 1912.824219 1347.875 C 1902.429688 1347.875 1893.992188 1356.3125 1893.992188 1366.707031 L 1893.992188 1404.371094 C 1893.992188 1414.765625 1902.421875 1423.203125 1912.824219 1423.203125 Z M 1912.824219 1423.203125 " fill-opacity="1" fill-rule="nonzero"/><path fill="#000000" d="M 2006.984375 1366.707031 C 2006.984375 1356.3125 1998.550781 1347.875 1988.152344 1347.875 C 1977.757812 1347.875 1969.320312 1356.3125 1969.320312 1366.707031 L 1969.320312 1404.371094 C 1969.320312 1414.765625 1977.757812 1423.203125 1988.152344 1423.203125 C 1998.550781 1423.203125 2006.984375 1414.765625 2006.984375 1404.371094 Z M 2006.984375 1366.707031 " fill-opacity="1" fill-rule="nonzero"/><path fill="#000000" d="M 2270.839844 1931.667969 C 2270.839844 1921.273438 2262.40625 1912.835938 2252.007812 1912.835938 C 2241.613281 1912.835938 2233.175781 1921.273438 2233.175781 1931.667969 L 2233.175781 1932.949219 C 2239.296875 1932.183594 2245.492188 1931.667969 2251.8125 1931.667969 C 2258.269531 1931.667969 2264.597656 1932.214844 2270.839844 1933.003906 Z M 2270.839844 1931.667969 " fill-opacity="1" fill-rule="nonzero"/><path fill="#000000" d="M 2195.511719 1931.667969 C 2195.511719 1921.273438 2187.078125 1912.835938 2176.679688 1912.835938 C 2166.285156 1912.835938 2157.847656 1921.273438 2157.847656 1931.667969 L 2157.847656 1964.753906 C 2169.1875 1955.679688 2181.851562 1948.21875 2195.511719 1942.683594 Z M 2195.511719 1931.667969 " fill-opacity="1" fill-rule="nonzero"/><path fill="#000000" d="M 2326.5 1649.1875 C 2326.808594 1650.136719 2327.140625 1651.691406 2327.140625 1653.820312 L 2327.140625 1952.054688 C 2341.328125 1960.292969 2354.023438 1970.761719 2364.804688 1983.011719 L 2364.804688 1653.828125 C 2364.804688 1630.46875 2350.914062 1611.53125 2327.140625 1611.53125 L 2232.980469 1611.53125 L 2232.980469 1592.699219 C 2232.980469 1582.304688 2224.542969 1573.867188 2214.148438 1573.867188 C 2203.753906 1573.867188 2195.316406 1582.304688 2195.316406 1592.699219 L 2195.316406 1611.53125 L 2138.820312 1611.53125 L 2138.820312 1649.195312 L 2326.5 1649.195312 Z M 2326.5 1649.1875 " fill-opacity="1" fill-rule="nonzero"/><path fill="#000000" d="M 2251.8125 2195.316406 C 2314.117188 2195.316406 2364.804688 2144.628906 2364.804688 2082.324219 C 2364.804688 2020.015625 2314.117188 1969.332031 2251.8125 1969.332031 C 2189.503906 1969.332031 2138.820312 2020.015625 2138.820312 2082.324219 C 2138.820312 2144.628906 2189.503906 2195.316406 2251.8125 2195.316406 Z M 2251.8125 2006.996094 C 2293.34375 2006.996094 2327.140625 2040.789062 2327.140625 2082.324219 C 2327.140625 2123.855469 2293.34375 2157.652344 2251.8125 2157.652344 C 2210.277344 2157.652344 2176.484375 2123.855469 2176.484375 2082.324219 C 2176.484375 2040.789062 2210.277344 2006.996094 2251.8125 2006.996094 Z M 2251.8125 2006.996094 " fill-opacity="1" fill-rule="nonzero"/><path fill="#000000" d="M 1498.53125 2195.316406 C 1560.835938 2195.316406 1611.523438 2144.628906 1611.523438 2082.324219 C 1611.523438 2020.015625 1560.835938 1969.332031 1498.53125 1969.332031 C 1436.222656 1969.332031 1385.539062 2020.015625 1385.539062 2082.324219 C 1385.539062 2144.628906 1436.222656 2195.316406 1498.53125 2195.316406 Z M 1498.53125 2006.996094 C 1540.0625 2006.996094 1573.859375 2040.789062 1573.859375 2082.324219 C 1573.859375 2123.855469 1540.0625 2157.652344 1498.53125 2157.652344 C 1456.996094 2157.652344 1423.203125 2123.855469 1423.203125 2082.324219 C 1423.203125 2040.789062 1456.996094 2006.996094 1498.53125 2006.996094 Z M 1498.53125 2006.996094 " fill-opacity="1" fill-rule="nonzero"/><path fill="#000000" d="M 2179.035156 2214.148438 C 2162.894531 2205.203125 2148.582031 2193.367188 2136.746094 2179.363281 C 2120.789062 2182.699219 2105.824219 2188.847656 2092.359375 2197.246094 C 2100.808594 2206.605469 2108.285156 2216.832031 2114.640625 2227.847656 C 2129.421875 2219.175781 2146.492188 2214.148438 2164.722656 2214.148438 Z M 2179.035156 2214.148438 " fill-opacity="1" fill-rule="nonzero"/><g clip-path="url(#id2)"><path fill="#000000" d="M 2366.875 2179.363281 C 2355.039062 2193.375 2340.726562 2205.203125 2324.589844 2214.148438 L 2338.910156 2214.148438 C 2394.726562 2214.148438 2440.132812 2260.664062 2440.132812 2317.847656 L 2440.132812 2423.8125 C 2440.132812 2432.816406 2433.089844 2440.132812 2424.433594 2440.132812 L 2137.292969 2440.132812 C 2134.796875 2454.039062 2129.175781 2466.816406 2121.191406 2477.796875 L 2424.445312 2477.796875 C 2453.871094 2477.796875 2477.804688 2453.578125 2477.804688 2423.8125 L 2477.804688 2317.847656 C 2477.796875 2249.644531 2430.09375 2192.574219 2366.875 2179.363281 Z M 2366.875 2179.363281 " fill-opacity="1" fill-rule="nonzero"/></g><path fill="#000000" d="M 1832.769531 2226.800781 L 1809.84375 2332.921875 C 1809.777344 2333.230469 1809.71875 2333.542969 1809.664062 2333.851562 C 1808.007812 2343.945312 1811.460938 2354.285156 1819.03125 2361.621094 C 1819.03125 2361.621094 1852.101562 2393.109375 1852.128906 2393.136719 C 1864.632812 2405.046875 1885.339844 2405.453125 1898.050781 2393.636719 L 1930.933594 2363.257812 C 1938.636719 2356.09375 1942.296875 2345.699219 1940.726562 2335.433594 C 1940.679688 2335.125 1940.621094 2334.8125 1940.554688 2334.492188 L 1918.34375 2226.585938 C 1906.488281 2230.136719 1894.011719 2232.152344 1881.140625 2232.660156 L 1902.808594 2337.949219 L 1875.398438 2363.269531 L 1847.542969 2336.742188 L 1870.019531 2232.695312 C 1857.140625 2232.28125 1844.644531 2230.296875 1832.769531 2226.800781 Z M 1832.769531 2226.800781 " fill-opacity="1" fill-rule="nonzero"/><g clip-path="url(#id3)"><path fill="#000000" d="M 1990.234375 2179.363281 C 1978.398438 2193.375 1964.085938 2205.203125 1947.949219 2214.148438 L 1962.269531 2214.148438 C 2018.085938 2214.148438 2063.492188 2260.664062 2063.492188 2317.847656 L 2063.492188 2423.8125 C 2063.492188 2432.816406 2056.449219 2440.132812 2047.792969 2440.132812 L 1702.546875 2440.132812 C 1693.894531 2440.132812 1686.851562 2432.804688 1686.851562 2423.8125 L 1686.851562 2317.847656 C 1686.851562 2260.664062 1732.265625 2214.148438 1788.074219 2214.148438 L 1802.394531 2214.148438 C 1786.253906 2205.203125 1771.941406 2193.367188 1760.105469 2179.363281 C 1696.886719 2192.574219 1649.1875 2249.644531 1649.1875 2317.847656 L 1649.1875 2423.8125 C 1649.1875 2453.585938 1673.121094 2477.796875 1702.546875 2477.796875 L 2047.804688 2477.796875 C 2077.230469 2477.796875 2101.164062 2453.578125 2101.164062 2423.8125 L 2101.164062 2317.847656 C 2101.15625 2249.644531 2053.453125 2192.574219 1990.234375 2179.363281 Z M 1990.234375 2179.363281 " fill-opacity="1" fill-rule="nonzero"/></g><path fill="#000000" d="M 1988.164062 2082.324219 C 1988.164062 2020.015625 1937.476562 1969.332031 1875.171875 1969.332031 C 1812.863281 1969.332031 1762.179688 2020.015625 1762.179688 2082.324219 C 1762.179688 2144.628906 1812.863281 2195.316406 1875.171875 2195.316406 C 1937.476562 2195.316406 1988.164062 2144.628906 1988.164062 2082.324219 Z M 1875.171875 2157.652344 C 1833.636719 2157.652344 1799.84375 2123.855469 1799.84375 2082.324219 C 1799.84375 2040.789062 1833.636719 2006.996094 1875.171875 2006.996094 C 1916.703125 2006.996094 1950.5 2040.789062 1950.5 2082.324219 C 1950.5 2123.855469 1916.703125 2157.652344 1875.171875 2157.652344 Z M 1875.171875 2157.652344 " fill-opacity="1" fill-rule="nonzero"/><path fill="#000000" d="M 2209.410156 2226.800781 L 2186.484375 2332.921875 C 2186.417969 2333.230469 2186.359375 2333.542969 2186.304688 2333.851562 C 2184.648438 2343.945312 2188.101562 2354.285156 2195.671875 2361.621094 C 2195.671875 2361.621094 2228.761719 2393.128906 2228.769531 2393.136719 C 2241.144531 2404.914062 2261.972656 2405.460938 2274.691406 2393.636719 L 2307.574219 2363.257812 C 2315.277344 2356.09375 2318.9375 2345.699219 2317.367188 2335.433594 C 2317.320312 2335.125 2317.261719 2334.8125 2317.195312 2334.492188 L 2294.984375 2226.585938 C 2283.128906 2230.136719 2270.652344 2232.152344 2257.78125 2232.660156 L 2279.449219 2337.949219 L 2252.039062 2363.269531 L 2224.183594 2336.742188 L 2246.660156 2232.695312 C 2233.78125 2232.28125 2221.285156 2230.296875 2209.410156 2226.800781 Z M 2209.410156 2226.800781 " fill-opacity="1" fill-rule="nonzero"/><path fill="#000000" d="M 1818.449219 1942.84375 C 1830.324219 1937.996094 1842.957031 1934.679688 1856.113281 1933.011719 L 1856.113281 1931.667969 C 1856.113281 1921.273438 1847.675781 1912.835938 1837.28125 1912.835938 C 1826.886719 1912.835938 1818.449219 1921.273438 1818.449219 1931.667969 Z M 1818.449219 1942.84375 " fill-opacity="1" fill-rule="nonzero"/><path fill="#000000" d="M 1893.777344 1932.9375 C 1906.929688 1934.566406 1919.558594 1937.863281 1931.441406 1942.675781 L 1931.441406 1931.667969 C 1931.441406 1921.273438 1923.003906 1912.835938 1912.609375 1912.835938 C 1902.214844 1912.835938 1893.777344 1921.273438 1893.777344 1931.667969 Z M 1893.777344 1932.9375 " fill-opacity="1" fill-rule="nonzero"/><path fill="#000000" d="M 2006.769531 1969.332031 L 2006.769531 1931.667969 C 2006.769531 1921.273438 1998.332031 1912.835938 1987.9375 1912.835938 C 1977.542969 1912.835938 1969.105469 1921.273438 1969.105469 1931.667969 L 1969.105469 1964.734375 C 1977.597656 1971.535156 1985.347656 1979.191406 1992.191406 1987.636719 C 2000.535156 1985.707031 2006.769531 1978.257812 2006.769531 1969.332031 Z M 2006.769531 1969.332031 " fill-opacity="1" fill-rule="nonzero"/><path fill="#000000" d="M 1743.121094 1969.332031 C 1743.121094 1978.398438 1749.53125 1985.960938 1758.0625 1987.75 C 1764.816406 1979.40625 1772.433594 1971.808594 1780.785156 1965.074219 L 1780.785156 1931.667969 C 1780.785156 1921.273438 1772.347656 1912.835938 1761.953125 1912.835938 C 1751.558594 1912.835938 1743.121094 1921.273438 1743.121094 1931.667969 Z M 1743.121094 1969.332031 " fill-opacity="1" fill-rule="nonzero"/><path fill="#000000" d="M 1456.128906 2226.800781 L 1433.203125 2332.921875 C 1433.136719 2333.230469 1433.078125 2333.542969 1433.023438 2333.851562 C 1431.367188 2343.945312 1434.820312 2354.285156 1442.390625 2361.621094 C 1442.390625 2361.621094 1475.480469 2393.128906 1475.488281 2393.136719 C 1487.871094 2404.925781 1508.625 2405.527344 1521.410156 2393.636719 L 1554.292969 2363.257812 C 1561.996094 2356.09375 1565.65625 2345.699219 1564.085938 2335.433594 C 1564.039062 2335.125 1563.980469 2334.8125 1563.914062 2334.492188 L 1541.703125 2226.585938 C 1529.847656 2230.136719 1517.371094 2232.152344 1504.5 2232.660156 L 1526.167969 2337.949219 L 1498.757812 2363.269531 L 1470.902344 2336.742188 L 1493.378906 2232.695312 C 1480.5 2232.28125 1468.003906 2230.296875 1456.128906 2226.800781 Z M 1456.128906 2226.800781 " fill-opacity="1" fill-rule="nonzero"/><g clip-path="url(#id4)"><path fill="#000000" d="M 1325.90625 2440.132812 C 1317.253906 2440.132812 1310.210938 2432.804688 1310.210938 2423.8125 L 1310.210938 2317.847656 C 1310.210938 2260.664062 1355.625 2214.148438 1411.433594 2214.148438 L 1425.753906 2214.148438 C 1409.613281 2205.203125 1395.300781 2193.367188 1383.464844 2179.363281 C 1320.246094 2192.574219 1272.546875 2249.644531 1272.546875 2317.847656 L 1272.546875 2423.8125 C 1272.546875 2453.578125 1296.480469 2477.796875 1325.90625 2477.796875 L 1629.160156 2477.796875 C 1621.175781 2466.816406 1615.550781 2454.039062 1613.058594 2440.132812 Z M 1325.90625 2440.132812 " fill-opacity="1" fill-rule="nonzero"/></g><path fill="#000000" d="M 1613.527344 2179.429688 C 1601.710938 2193.402344 1587.417969 2205.210938 1571.308594 2214.148438 L 1585.628906 2214.148438 C 1603.847656 2214.148438 1620.917969 2219.175781 1635.710938 2227.847656 C 1642.039062 2216.878906 1649.488281 2206.679688 1657.886719 2197.347656 C 1644.414062 2188.949219 1629.46875 2182.800781 1613.527344 2179.429688 Z M 1613.527344 2179.429688 " fill-opacity="1" fill-rule="nonzero"/><path fill="#000000" d="M 1423.203125 1952.054688 C 1423.203125 1952.054688 1422.65625 1650.230469 1423.050781 1649.1875 L 1611.523438 1649.1875 L 1611.523438 1611.523438 L 1536.195312 1611.523438 L 1536.195312 1592.691406 C 1536.195312 1582.296875 1527.757812 1573.859375 1517.363281 1573.859375 C 1506.96875 1573.859375 1498.53125 1582.296875 1498.53125 1592.691406 L 1498.53125 1611.523438 L 1423.203125 1611.523438 C 1399.425781 1611.523438 1385.539062 1631.191406 1385.539062 1654.554688 L 1385.539062 1983.003906 C 1396.320312 1970.761719 1409.011719 1960.292969 1423.203125 1952.054688 Z M 1423.203125 1952.054688 " fill-opacity="1" fill-rule="nonzero"/><path fill="#000000" d="M 1517.136719 1932.9375 L 1517.136719 1931.667969 C 1517.136719 1921.273438 1508.699219 1912.835938 1498.304688 1912.835938 C 1487.910156 1912.835938 1479.472656 1921.273438 1479.472656 1931.667969 L 1479.472656 1933.011719 C 1485.734375 1932.214844 1492.0625 1931.667969 1498.53125 1931.667969 C 1504.839844 1931.667969 1511.023438 1932.183594 1517.136719 1932.9375 Z M 1517.136719 1932.9375 " fill-opacity="1" fill-rule="nonzero"/><path fill="#000000" d="M 1592.464844 1931.667969 C 1592.464844 1921.273438 1584.027344 1912.835938 1573.632812 1912.835938 C 1563.238281 1912.835938 1554.800781 1921.273438 1554.800781 1931.667969 L 1554.800781 1942.675781 C 1568.464844 1948.203125 1581.128906 1955.660156 1592.464844 1964.734375 Z M 1592.464844 1931.667969 " fill-opacity="1" fill-rule="nonzero"/><g clip-path="url(#id5)"><path fill="#000000" d="M 1686.851562 1310.210938 L 2063.492188 1310.210938 L 2063.492188 2171.398438 C 2075.101562 2163.121094 2087.738281 2156.296875 2101.15625 2151.023438 L 2101.15625 1310.210938 C 2101.15625 1289.410156 2084.292969 1272.546875 2063.492188 1272.546875 L 1686.851562 1272.546875 C 1666.050781 1272.546875 1649.1875 1289.410156 1649.1875 1310.210938 L 1649.1875 2151.011719 C 1662.605469 2156.285156 1675.242188 2163.113281 1686.851562 2171.390625 Z M 1686.851562 1310.210938 " fill-opacity="1" fill-rule="nonzero"/></g><g clip-path="url(#id6)"><path fill="#000000" d="M 1310.210938 2171.398438 L 1310.210938 1911.875 C 1310.210938 1902.027344 1318.65625 1894.003906 1329.042969 1894.003906 L 1347.875 1894.003906 L 1347.875 1856.339844 L 1329.042969 1856.339844 C 1297.882812 1856.339844 1272.546875 1881.253906 1272.546875 1911.875 L 1272.546875 2207.699219 C 1283.28125 2193.808594 1295.953125 2181.558594 1310.210938 2171.398438 Z M 1310.210938 2171.398438 " fill-opacity="1" fill-rule="nonzero"/></g><g clip-path="url(#id7)"><path fill="#42a5f5" d="M 2652.953125 2126.257812 L 2688.851562 2166.144531 L 2740.703125 2150.191406 L 2752.667969 2202.042969 L 2804.523438 2214.007812 L 2788.566406 2265.863281 L 2828.453125 2301.757812 L 2788.566406 2337.65625 L 2804.523438 2389.507812 L 2752.667969 2401.476562 L 2740.703125 2453.328125 L 2688.851562 2437.375 L 2652.953125 2477.257812 L 2617.054688 2437.375 L 2565.203125 2453.328125 L 2553.238281 2401.476562 L 2501.386719 2389.507812 L 2517.339844 2337.65625 L 2477.453125 2301.757812 L 2517.339844 2265.863281 L 2501.386719 2214.007812 L 2553.238281 2202.042969 L 2565.203125 2150.191406 L 2617.054688 2166.144531 Z M 2652.953125 2126.257812 " fill-opacity="1" fill-rule="nonzero"/></g><path fill="#e3f2fd" d="M 2737.511719 2226.773438 L 2629.023438 2335.265625 L 2584.347656 2290.589844 L 2562.011719 2312.925781 L 2629.023438 2379.9375 L 2759.847656 2249.109375 Z M 2737.511719 2226.773438 " fill-opacity="1" fill-rule="nonzero"/></svg>